<svg xmlns="http://www.w3.org/2000/svg" width="1440" height="911" viewBox="0 0 1440 911" fill="none">
  <path d="M-2 268H1438V911H-2V268Z" fill="#F2F5FF"/>
  <path fill-rule="evenodd" clip-rule="evenodd" d="M-14 186L69 171C151 156 316 126 481 119C646 111 812 126 977 111C1142 96 1307 52 1389 30L1472 7V364H1389C1307 364 1142 364 977 364C812 364 646 364 481 364C316 364 151 364 69 364H-14V186Z" fill="#F2F5FF" fill-opacity="0.65"/>
  <path fill-rule="evenodd" clip-rule="evenodd" d="M-559 233.138L-446.512 239.464C-334.024 246.58 -110.244 260.022 114.732 206.254C338.512 153.276 563.488 33.087 787.268 6.20267C1012.24 -20.6816 1236.02 46.5291 1348.51 79.7391L1461 112.949V313H1348.51C1236.02 313 1012.24 313 787.268 313C563.488 313 338.512 313 114.732 313C-110.244 313 -334.024 313 -446.512 313H-559V233.138Z" fill="#F2F5FF" fill-opacity="0.5"/>
  <path fill-rule="evenodd" clip-rule="evenodd" d="M-347 147.191L-271.565 167.927C-196.131 187.761 -45.2611 227.43 105.608 214.808C255.261 201.284 406.131 133.667 557 100.31C707.87 66.9517 858.739 66.9517 1009.61 80.4752C1159.26 93.9986 1310.13 120.144 1385.57 133.667L1461 147.191V268H1385.57C1310.13 268 1159.26 268 1009.61 268C858.739 268 707.87 268 557 268C406.131 268 255.261 268 105.608 268C-45.2611 268 -196.131 268 -271.565 268H-347V147.191Z" fill="#F2F5FF"/>
  <path d="M-2 268H1438V911H-2V268Z"/>
  <path fill-rule="evenodd" clip-rule="evenodd" d="M-14 186L69 171C151 156 316 126 481 119C646 111 812 126 977 111C1142 96 1307 52 1389 30L1472 7V364H1389C1307 364 1142 364 977 364C812 364 646 364 481 364C316 364 151 364 69 364H-14V186Z" />
  <path fill-rule="evenodd" clip-rule="evenodd" d="M-559 233.138L-446.512 239.464C-334.024 246.58 -110.244 260.022 114.732 206.254C338.512 153.276 563.488 33.087 787.268 6.20267C1012.24 -20.6816 1236.02 46.5291 1348.51 79.7391L1461 112.949V313H1348.51C1236.02 313 1012.24 313 787.268 313C563.488 313 338.512 313 114.732 313C-110.244 313 -334.024 313 -446.512 313H-559V233.138Z" />
  <path fill-rule="evenodd" clip-rule="evenodd" d="M-347 147.191L-271.565 167.927C-196.131 187.761 -45.2611 227.43 105.608 214.808C255.261 201.284 406.131 133.667 557 100.31C707.87 66.9517 858.739 66.9517 1009.61 80.4752C1159.26 93.9986 1310.13 120.144 1385.57 133.667L1461 147.191V268H1385.57C1310.13 268 1159.26 268 1009.61 268C858.739 268 707.87 268 557 268C406.131 268 255.261 268 105.608 268C-45.2611 268 -196.131 268 -271.565 268H-347V147.191Z" />
</svg>